{"url": "https://api.github.com/repos/tensorflow/tensorflow/issues/comments/412317464", "html_url": "https://github.com/tensorflow/tensorflow/issues/21549#issuecomment-412317464", "issue_url": "https://api.github.com/repos/tensorflow/tensorflow/issues/21549", "id": 412317464, "node_id": "MDEyOklzc3VlQ29tbWVudDQxMjMxNzQ2NA==", "user": {"login": "Flowerfan", "id": 7525070, "node_id": "MDQ6VXNlcjc1MjUwNzA=", "avatar_url": "https://avatars2.githubusercontent.com/u/7525070?v=4", "gravatar_id": "", "url": "https://api.github.com/users/Flowerfan", "html_url": "https://github.com/Flowerfan", "followers_url": "https://api.github.com/users/Flowerfan/followers", "following_url": "https://api.github.com/users/Flowerfan/following{/other_user}", "gists_url": "https://api.github.com/users/Flowerfan/gists{/gist_id}", "starred_url": "https://api.github.com/users/Flowerfan/starred{/owner}{/repo}", "subscriptions_url": "https://api.github.com/users/Flowerfan/subscriptions", "organizations_url": "https://api.github.com/users/Flowerfan/orgs", "repos_url": "https://api.github.com/users/Flowerfan/repos", "events_url": "https://api.github.com/users/Flowerfan/events{/privacy}", "received_events_url": "https://api.github.com/users/Flowerfan/received_events", "type": "User", "site_admin": false}, "created_at": "2018-08-12T04:12:50Z", "updated_at": "2018-08-12T04:12:50Z", "author_association": "NONE", "body_html": "<p><a href=\"https://github.com/tensorflow/tensorflow/files/2280711/VIRAT_S_000000_0023.avi.zip\">VIRAT_S_000000_0023.avi.zip</a><br>\n<a class=\"user-mention\" data-hovercard-type=\"user\" data-hovercard-url=\"/hovercards?user_id=6932348\" data-octo-click=\"hovercard-link-click\" data-octo-dimensions=\"link_type:self\" href=\"https://github.com/yongtang\">@yongtang</a>  I uploaded the video.</p>\n<p>Below is the video info using ffprobe<br>\nffprobe version 2.8.14-0ubuntu0.16.04.1 Copyright (c) 2007-2018 the FFmpeg developers<br>\nbuilt with gcc 5.4.0 (Ubuntu 5.4.0-6ubuntu1~16.04.9) 20160609<br>\nconfiguration: --prefix=/usr --extra-version=0ubuntu0.16.04.1 --build-suffix=-ffmpeg --toolchain=hardened --libdir=/usr/lib/x86_64-linux-gnu --incdir=/usr/include/x86_64-linux-gnu --cc=cc --cxx=g++ --enable-gpl --enable-shared --disable-stripping --disable-decoder=libopenjpeg --disable-decoder=libschroedinger --enable-avresample --enable-avisynth --enable-gnutls --enable-ladspa --enable-libass --enable-libbluray --enable-libbs2b --enable-libcaca --enable-libcdio --enable-libflite --enable-libfontconfig --enable-libfreetype --enable-libfribidi --enable-libgme --enable-libgsm --enable-libmodplug --enable-libmp3lame --enable-libopenjpeg --enable-libopus --enable-libpulse --enable-librtmp --enable-libschroedinger --enable-libshine --enable-libsnappy --enable-libsoxr --enable-libspeex --enable-libssh --enable-libtheora --enable-libtwolame --enable-libvorbis --enable-libvpx --enable-libwavpack --enable-libwebp --enable-libx265 --enable-libxvid --enable-libzvbi --enable-openal --enable-opengl --enable-x11grab --enable-libdc1394 --enable-libiec61883 --enable-libzmq --enable-frei0r --enable-libx264 --enable-libopencv<br>\nlibavutil      54. 31.100 / 54. 31.100<br>\nlibavcodec     56. 60.100 / 56. 60.100<br>\nlibavformat    56. 40.101 / 56. 40.101<br>\nlibavdevice    56.  4.100 / 56.  4.100<br>\nlibavfilter     5. 40.101 /  5. 40.101<br>\nlibavresample   2.  1.  0 /  2.  1.  0<br>\nlibswscale      3.  1.101 /  3.  1.101<br>\nlibswresample   1.  2.101 /  1.  2.101<br>\nlibpostproc    53.  3.100 / 53.  3.100<br>\nInput #0, avi, from '/home/flowerfan/data/cubes/gt_train/VIRAT_S_000000/VIRAT_S_000000_0023.avi':<br>\nMetadata:<br>\nencoder         : Lavf56.40.101<br>\nDuration: 00:00:13.00, start: 0.000000, bitrate: 1000 kb/s<br>\nStream #0:0: Video: h264 (High) (H264 / 0x34363248), yuv420p, 1360x608, 993 kb/s, 30 fps, 30 tbr, 30 tbn, 60 tbc</p>", "body_text": "VIRAT_S_000000_0023.avi.zip\n@yongtang  I uploaded the video.\nBelow is the video info using ffprobe\nffprobe version 2.8.14-0ubuntu0.16.04.1 Copyright (c) 2007-2018 the FFmpeg developers\nbuilt with gcc 5.4.0 (Ubuntu 5.4.0-6ubuntu1~16.04.9) 20160609\nconfiguration: --prefix=/usr --extra-version=0ubuntu0.16.04.1 --build-suffix=-ffmpeg --toolchain=hardened --libdir=/usr/lib/x86_64-linux-gnu --incdir=/usr/include/x86_64-linux-gnu --cc=cc --cxx=g++ --enable-gpl --enable-shared --disable-stripping --disable-decoder=libopenjpeg --disable-decoder=libschroedinger --enable-avresample --enable-avisynth --enable-gnutls --enable-ladspa --enable-libass --enable-libbluray --enable-libbs2b --enable-libcaca --enable-libcdio --enable-libflite --enable-libfontconfig --enable-libfreetype --enable-libfribidi --enable-libgme --enable-libgsm --enable-libmodplug --enable-libmp3lame --enable-libopenjpeg --enable-libopus --enable-libpulse --enable-librtmp --enable-libschroedinger --enable-libshine --enable-libsnappy --enable-libsoxr --enable-libspeex --enable-libssh --enable-libtheora --enable-libtwolame --enable-libvorbis --enable-libvpx --enable-libwavpack --enable-libwebp --enable-libx265 --enable-libxvid --enable-libzvbi --enable-openal --enable-opengl --enable-x11grab --enable-libdc1394 --enable-libiec61883 --enable-libzmq --enable-frei0r --enable-libx264 --enable-libopencv\nlibavutil      54. 31.100 / 54. 31.100\nlibavcodec     56. 60.100 / 56. 60.100\nlibavformat    56. 40.101 / 56. 40.101\nlibavdevice    56.  4.100 / 56.  4.100\nlibavfilter     5. 40.101 /  5. 40.101\nlibavresample   2.  1.  0 /  2.  1.  0\nlibswscale      3.  1.101 /  3.  1.101\nlibswresample   1.  2.101 /  1.  2.101\nlibpostproc    53.  3.100 / 53.  3.100\nInput #0, avi, from '/home/flowerfan/data/cubes/gt_train/VIRAT_S_000000/VIRAT_S_000000_0023.avi':\nMetadata:\nencoder         : Lavf56.40.101\nDuration: 00:00:13.00, start: 0.000000, bitrate: 1000 kb/s\nStream #0:0: Video: h264 (High) (H264 / 0x34363248), yuv420p, 1360x608, 993 kb/s, 30 fps, 30 tbr, 30 tbn, 60 tbc", "body": "\r\n[VIRAT_S_000000_0023.avi.zip](https://github.com/tensorflow/tensorflow/files/2280711/VIRAT_S_000000_0023.avi.zip)\r\n@yongtang  I uploaded the video.\r\n\r\nBelow is the video info using ffprobe\r\nffprobe version 2.8.14-0ubuntu0.16.04.1 Copyright (c) 2007-2018 the FFmpeg developers\r\n  built with gcc 5.4.0 (Ubuntu 5.4.0-6ubuntu1~16.04.9) 20160609\r\n  configuration: --prefix=/usr --extra-version=0ubuntu0.16.04.1 --build-suffix=-ffmpeg --toolchain=hardened --libdir=/usr/lib/x86_64-linux-gnu --incdir=/usr/include/x86_64-linux-gnu --cc=cc --cxx=g++ --enable-gpl --enable-shared --disable-stripping --disable-decoder=libopenjpeg --disable-decoder=libschroedinger --enable-avresample --enable-avisynth --enable-gnutls --enable-ladspa --enable-libass --enable-libbluray --enable-libbs2b --enable-libcaca --enable-libcdio --enable-libflite --enable-libfontconfig --enable-libfreetype --enable-libfribidi --enable-libgme --enable-libgsm --enable-libmodplug --enable-libmp3lame --enable-libopenjpeg --enable-libopus --enable-libpulse --enable-librtmp --enable-libschroedinger --enable-libshine --enable-libsnappy --enable-libsoxr --enable-libspeex --enable-libssh --enable-libtheora --enable-libtwolame --enable-libvorbis --enable-libvpx --enable-libwavpack --enable-libwebp --enable-libx265 --enable-libxvid --enable-libzvbi --enable-openal --enable-opengl --enable-x11grab --enable-libdc1394 --enable-libiec61883 --enable-libzmq --enable-frei0r --enable-libx264 --enable-libopencv\r\n  libavutil      54. 31.100 / 54. 31.100\r\n  libavcodec     56. 60.100 / 56. 60.100\r\n  libavformat    56. 40.101 / 56. 40.101\r\n  libavdevice    56.  4.100 / 56.  4.100\r\n  libavfilter     5. 40.101 /  5. 40.101\r\n  libavresample   2.  1.  0 /  2.  1.  0\r\n  libswscale      3.  1.101 /  3.  1.101\r\n  libswresample   1.  2.101 /  1.  2.101\r\n  libpostproc    53.  3.100 / 53.  3.100\r\nInput #0, avi, from '/home/flowerfan/data/cubes/gt_train/VIRAT_S_000000/VIRAT_S_000000_0023.avi':\r\n  Metadata:\r\n    encoder         : Lavf56.40.101\r\n  Duration: 00:00:13.00, start: 0.000000, bitrate: 1000 kb/s\r\n    Stream #0:0: Video: h264 (High) (H264 / 0x34363248), yuv420p, 1360x608, 993 kb/s, 30 fps, 30 tbr, 30 tbn, 60 tbc\r\n"}